<?xml version="1.0" encoding="UTF-8" standalone="no"?>
<svg
   xmlns:dc="http://purl.org/dc/elements/1.1/"
   xmlns:cc="http://creativecommons.org/ns#"
   xmlns:rdf="http://www.w3.org/1999/02/22-rdf-syntax-ns#"
   xmlns:svg="http://www.w3.org/2000/svg"
   xmlns="http://www.w3.org/2000/svg"
   id="svg118"
   version="1.1"
   viewBox="0 0 255 94"
   height="94px"
   width="255px">
  <metadata
     id="metadata122">
    <rdf:RDF>
      <cc:Work
         rdf:about="">
        <dc:format>image/svg+xml</dc:format>
        <dc:type
           rdf:resource="http://purl.org/dc/dcmitype/StillImage" />
        <dc:title>UK Header</dc:title>
      </cc:Work>
    </rdf:RDF>
  </metadata>
  <!-- Generator: Sketch 42 (36781) - http://www.bohemiancoding.com/sketch -->
  <title
     id="title2">UK Header</title>
  <desc
     id="desc4">Created with Sketch.</desc>
  <defs
     id="defs13">
    <radialGradient
       gradientUnits="userSpaceOnUse"
       gradientTransform="scale(1.0015286,0.99847371)"
       id="radialGradient-1"
       r="118.81529"
       fy="-8.3424731"
       fx="-0.82414174"
       cy="-8.3424731"
       cx="-0.82414174">
      <stop
         id="stop6"
         offset="0%"
         stop-color="#009BBD" />
      <stop
         id="stop8"
         offset="17.35%"
         stop-color="#009BBD" />
      <stop
         id="stop10"
         offset="100%"
         stop-color="#1B296B" />
    </radialGradient>
  </defs>
  <g
     id="UoN_Logo_RGB"
     style="fill:none;fill-rule:nonzero;stroke:none;stroke-width:1">
    <g
       id="New_Logo">
      <g
         style="fill:#1b296b"
         transform="translate(109.82515,24.610173)"
         id="Uni_of_Notts">
        <path
           id="Shape"
           d="M 36.47404,67.753312 36.171769,66.89949 c -1.209084,0.401798 -2.01514,0.552473 -2.619682,0.552473 -1.662491,0 -2.569304,-1.456521 -2.569304,-4.118437 0,-2.461017 0.957192,-3.867313 2.770818,-3.867313 0.604542,0 1.36022,0.10045 2.267033,0.301349 l 0.201514,-0.853822 c -0.906813,-0.251125 -1.813627,-0.452024 -2.518926,-0.452024 -2.569304,0 -3.929523,1.75787 -3.929523,5.022484 0,3.164165 1.360219,5.022485 3.627252,5.022485 0.806056,0 1.914384,-0.30135 3.073089,-0.753373 z" />
        <polygon
           points="39.496751,68.305785 39.496751,63.634875 44.181952,63.634875 44.181952,68.305785 45.340658,68.305785 45.340658,58.612391 44.181952,58.612391 44.181952,62.781053 39.496751,62.781053 39.496751,58.612391 38.338045,58.612391 38.338045,68.305785 "
           id="polygon17" />
        <polygon
           points="48.867154,68.305785 48.867154,58.612391 47.708448,58.612391 47.708448,68.305785 "
           id="polygon19" />
        <polygon
           points="52.192135,59.817787 56.524687,68.305785 58.187178,68.305785 58.187178,58.612391 57.229986,58.612391 57.229986,67.200839 52.847056,58.612391 51.184565,58.612391 51.184565,68.305785 52.192135,68.305785 "
           id="polygon21" />
        <path
           id="path23"
           d="m 64.333356,58.612391 h -1.309842 l -3.476117,9.693394 h 1.057949 l 0.957192,-2.611692 h 4.181416 l 0.957192,2.611692 h 1.209084 z m -2.468547,6.177655 1.763247,-5.173159 1.813627,5.173159 z" />
        <polygon
           points="84.283245,59.717337 87.054063,68.305785 88.464661,68.305785 91.285858,59.717337 91.436993,68.305785 92.646078,68.305785 92.293428,58.612391 90.630937,58.612391 87.860119,67.351513 85.038923,58.612391 83.376432,58.612391 83.023782,68.305785 84.13211,68.305785 "
           id="polygon25" />
        <path
           id="path27"
           d="m 98.792256,58.612391 h -1.309842 l -3.425738,9.693394 h 1.057949 l 0.906813,-2.611692 h 4.181412 l 0.9572,2.611692 h 1.20908 z m -2.518926,6.177655 1.763248,-5.223383 1.813626,5.223383 z" />
        <polygon
           points="104.93843,67.451963 104.93843,58.612391 103.77973,58.612391 103.77973,68.305785 109.27098,68.305785 109.27098,67.451963 "
           id="polygon29" />
        <path
           id="path31"
           d="m 114.91338,58.612391 h -1.30984 l -3.42574,9.693394 h 1.05795 l 0.90681,-2.611692 h 4.18142 l 0.95719,2.611692 h 1.20908 z m -2.51893,6.177655 1.76325,-5.223383 1.81363,5.223383 z" />
        <polygon
           points="122.31902,64.036674 125.59362,58.612391 124.38454,58.612391 121.81523,63.082402 119.19555,58.612391 117.83533,58.612391 121.16031,64.036674 121.16031,68.305785 122.31902,68.305785 "
           id="polygon33" />
        <path
           id="path35"
           d="m 132.04207,65.543419 c 0,-1.456521 -0.55416,-2.109444 -2.67006,-2.762367 -1.81363,-0.552473 -2.06552,-0.803597 -2.06552,-1.707644 0,-1.054722 0.75568,-1.607195 1.81363,-1.607195 0.60454,0 1.36022,0.10045 2.31741,0.301349 l 0.20151,-0.853822 c -0.90681,-0.251125 -1.76324,-0.401799 -2.5693,-0.401799 -1.76325,0 -2.92195,1.004497 -2.92195,2.661917 0,2.260117 2.21665,2.360567 3.82876,3.063715 0.75568,0.351574 0.95719,0.703148 0.95719,1.406295 0,1.054722 -0.90681,1.75787 -2.16627,1.75787 -0.7053,0 -1.46098,-0.150675 -2.46855,-0.401799 l -0.25189,0.904047 c 1.05795,0.301349 1.864,0.452024 2.77082,0.452024 1.91438,0.05022 3.22422,-1.054722 3.22422,-2.812591 z" />
        <polygon
           points="135.0144,68.305785 135.0144,58.612391 133.8557,58.612391 133.8557,68.305785 "
           id="polygon37" />
        <path
           id="path39"
           d="m 141.26134,58.612391 h -1.30984 l -3.47612,9.693394 h 1.05795 l 0.95719,-2.611692 h 4.18142 l 0.95719,2.611692 h 1.20908 z m -2.51893,6.177655 1.76325,-5.223383 1.81363,5.223383 z" />
        <path
           id="path41"
           d="M 7.0529912,64.388247 V 58.662615 H 6.045421 v 6.127431 c 0,0.904047 -0.050378,1.356071 -0.2518925,1.75787 -0.3526496,0.652923 -1.0579487,0.954272 -2.1158974,0.954272 -1.6121122,0 -2.4181684,-0.703148 -2.4181684,-2.310343 v -6.52923 H 0.10075702 v 5.625183 c 0,1.858319 0.0503785,2.310342 0.50378509,2.913041 0.50378509,0.753372 1.61211229,1.205396 2.92195349,1.205396 1.2090842,0 2.1158974,-0.301349 2.770818,-0.904047 0.6045421,-0.602698 0.7556776,-1.104947 0.7556776,-3.113941 z" />
        <polygon
           points="10.277216,68.305785 10.277216,63.283301 14.559389,68.305785 15.969987,68.305785 11.536679,63.132626 15.86923,58.612391 14.509011,58.612391 10.277216,63.032177 10.277216,58.612391 9.1185101,58.612391 9.1185101,68.305785 "
           id="polygon43" />
        <rect
           height="11.652164"
           width="0.48813561"
           y="57.658119"
           x="22.166544"
           id="Rectangle-path" />
        <rect
           height="11.652164"
           width="0.48813561"
           y="57.658119"
           x="74.560196"
           id="rect46" />
        <path
           id="path48"
           d="M 141.1102,44.39876 V 32.746597 c 0,-1.45652 -0.80605,-2.661917 -2.77082,-2.661917 -1.10832,0 -1.91438,0.301349 -2.5693,0.954272 0.20151,0.552474 0.25189,1.104947 0.25189,2.260118 v 11.09969 h -3.72801 V 32.746597 c 0,-1.356071 -0.35265,-2.762366 -2.77081,-2.762366 -1.20909,0 -1.6625,0.200899 -2.31741,0.502248 V 44.39876 h -3.72801 V 29.029959 c 1.41059,-0.602698 3.42573,-1.356071 6.24693,-1.356071 2.31741,0 3.82877,0.552473 4.78596,1.356071 1.10833,-0.803598 2.5693,-1.356071 4.6852,-1.356071 3.92952,0 5.64239,2.260118 5.64239,5.072709 V 44.39876 Z" />
        <path
           id="path50"
           d="M 101.81497,44.39876 V 32.997721 c 0,-1.607195 -0.65492,-2.762366 -2.770822,-2.762366 -1.158706,0 -1.964762,0.301349 -2.770818,0.803597 V 44.39876 H 92.545321 V 22.450504 h 3.728009 v 6.077206 c 0.957192,-0.452023 2.36779,-0.753372 3.677631,-0.753372 4.080659,0 5.541639,2.461017 5.541639,4.922034 v 11.652163 h -3.67763 z" />
        <path
           id="path52"
           d="m 56.42393,25.664894 c -1.410599,0 -2.166276,-0.904047 -2.166276,-1.958769 0,-1.054721 0.755677,-1.958768 2.166276,-1.958768 1.360219,0 2.166276,0.904047 2.166276,1.958768 0,1.004497 -0.806057,1.958769 -2.166276,1.958769 z" />
        <path
           id="path54"
           d="M 70.227641,44.39876 V 32.746597 c 0,-1.356071 -0.554163,-2.762366 -2.921953,-2.762366 -1.209085,0 -1.813627,0.200899 -2.518926,0.502248 V 44.39876 H 61.058753 V 29.029959 c 1.410598,-0.602698 3.627252,-1.356071 6.39807,-1.356071 4.886716,0 6.498828,2.360567 6.498828,4.972259 v 11.702388 h -3.72801 z" />
        <polygon
           points="54.559925,44.39876 54.559925,28.025462 58.287935,28.025462 58.287935,44.39876 "
           id="polygon56" />
        <path
           id="path58"
           d="m 49.67321,44.59966 c -3.224225,0 -4.534066,-1.808095 -4.534066,-4.470011 v -9.74362 h -1.813627 v -2.360567 h 1.813627 v -3.31484 l 3.728009,-1.054721 v 4.319336 h 2.619683 v 2.360568 h -2.619683 v 9.743619 c 0,1.45652 0.806057,1.908544 1.813627,1.908544 0.302271,0 0.755677,0 1.108327,-0.05023 v 2.461017 c -0.35265,0.05022 -1.309841,0.2009 -2.115897,0.2009 z" />
        <path
           id="path60"
           d="m 39.748643,44.59966 c -3.224224,0 -4.534065,-1.808095 -4.534065,-4.470011 v -9.74362 h -1.813627 v -2.360567 h 1.813627 v -3.31484 l 3.728009,-1.054721 v 4.319336 h 2.619683 v 2.360568 h -2.619683 v 9.743619 c 0,1.45652 0.806056,1.908544 1.813627,1.908544 0.302271,0 0.755677,0 1.108327,-0.05023 v 2.461017 c -0.35265,0.05022 -1.309842,0.2009 -2.115898,0.2009 z" />
        <path
           id="path62"
           d="M 12.645006,44.39876 4.8363368,31.239852 C 4.3325518,30.436254 3.9799022,29.632657 3.5768741,28.678385 h -0.050378 c 0.100757,1.054722 0.2015141,1.908544 0.2015141,2.661916 V 44.39876 H 0.10075702 V 23.505226 H 3.9295237 l 7.2545053,12.305086 c 0.403028,0.753373 0.806056,1.406296 1.158706,2.360568 h 0.05038 C 12.292356,37.116158 12.292356,36.41301 12.292356,35.659638 V 23.455001 h 3.627253 v 20.893534 h -3.274603 z" />
        <path
           id="path64"
           d="m 114.40959,27.724113 c -2.5693,0 -4.53406,0.753372 -5.64239,1.205396 l 0.85643,2.260118 c 0.9572,-0.502249 2.51893,-1.054722 4.08066,-1.054722 1.96477,0 3.22423,0.552473 3.22423,2.661917 v 0.904047 c -0.30227,-0.05022 -1.4106,-0.251124 -2.36779,-0.251124 -3.77839,0 -6.85148,1.958769 -6.85148,5.826081 0,3.164165 2.1159,5.524733 6.8011,5.524733 2.5693,0 4.63482,-0.502248 6.04542,-1.155171 V 33.349295 c 0.0504,-4.168662 -2.72044,-5.625182 -6.14618,-5.625182 z m 2.56931,14.615429 c -0.45341,0.200899 -1.36022,0.452023 -2.21666,0.452023 -1.96476,0 -3.32498,-1.255621 -3.32498,-3.515739 0,-2.109443 1.15871,-3.616188 3.42574,-3.616188 1.05795,0 1.71287,0.200899 2.06552,0.251124 v 6.42878 z" />
        <path
           id="path66"
           d="m 84.13211,27.724113 c -5.289744,0 -7.909426,3.365064 -7.909426,8.638673 0,5.122934 2.619682,8.136424 6.599584,8.136424 1.460977,0 2.569304,-0.251124 3.224225,-0.602698 v 1.054722 c 0,2.209893 -1.158706,3.616188 -3.879145,3.616188 -1.813627,0 -2.972332,-0.502248 -3.979902,-0.904047 l -1.057949,2.310343 c 1.209084,0.652923 3.173846,1.205396 5.692771,1.205396 4.08066,0 6.901856,-2.260118 6.901856,-6.579454 V 28.879284 C 88.565418,28.276586 86.600656,27.724113 84.13211,27.724113 Z m 1.914383,13.811831 c -0.554164,0.301349 -1.259463,0.552474 -2.115897,0.552474 -2.619683,0 -3.778389,-1.958769 -3.778389,-5.725632 0,-3.917538 1.209085,-6.328331 3.979903,-6.328331 0.806056,0 1.410598,0.05022 1.964761,0.351574 v 11.149915 z" />
        <path
           id="path68"
           d="m 25.290011,27.724113 c -4.634822,0 -6.952234,3.515739 -6.952234,8.538223 0,4.922034 2.317412,8.487998 6.952234,8.487998 4.634823,0 6.952235,-3.515739 6.952235,-8.487998 0,-5.022484 -2.317412,-8.538223 -6.952235,-8.538223 z m 0.201514,14.715878 c -2.569304,0 -2.972332,-3.314839 -2.972332,-6.22788 0,-2.963266 0.403028,-6.278105 2.972332,-6.278105 2.569304,0 2.972332,3.264615 2.972332,6.278105 0.05038,2.963266 -0.403028,6.22788 -2.972332,6.22788 z" />
        <path
           id="path70"
           d="m 112.49521,2.5112421 c -1.36022,0 -1.66249,0.6529229 -1.66249,1.6574198 v 0.5022484 h 1.96476 V 6.679904 h -1.96476 v 9.191146 h -2.97233 V 6.679904 H 106.6513 V 4.6709103 h 1.20909 V 3.8673128 c 0,-2.2601179 1.46097,-3.46551406 3.92952,-3.46551406 0.50379,0 0.85644,0 1.30984,0.0502248 V 2.4610173 h -0.60454 z" />
        <path
           id="path72"
           d="m 84.635895,20.391286 c -1.662491,0 -2.972332,-0.351574 -3.828767,-0.803598 l 0.654921,-1.757869 c 0.65492,0.301349 1.511355,0.602698 2.770818,0.602698 1.864004,0 2.468546,-0.853822 2.468546,-2.310343 v -0.703148 c -0.352649,0.2009 -1.108327,0.502249 -2.317411,0.502249 -2.770818,0 -3.979902,-1.356071 -3.979902,-3.616189 V 4.7211351 h 2.972332 v 7.4332769 c 0,1.004497 0.35265,1.808094 1.813626,1.808094 0.705299,0 1.158706,-0.200899 1.511355,-0.351574 V 4.7211351 h 2.972333 V 15.519476 c 0,3.515739 -2.115898,4.87181 -5.037851,4.87181 z" />
        <path
           id="path74"
           d="m 76.67609,16.071949 c -2.166276,0 -3.274603,-1.155171 -3.274603,-3.063715 V 6.7301288 H 72.142025 V 4.7211351 h 1.259462 V 2.4107924 l 2.972332,-0.8035975 v 3.1139402 h 1.813627 V 6.7301288 H 76.373819 V 12.75711 c 0,1.004497 0.503785,1.305846 1.209084,1.305846 0.35265,0 0.654921,0 1.007571,-0.05022 v 1.858319 c -0.251893,0.05022 -0.856435,0.200899 -1.914384,0.200899 z" />
        <polygon
           points="67.154552,15.921275 67.154552,4.7211352 70.126884,4.7211352 70.126884,15.921275 "
           id="polygon76" />
        <path
           id="path78"
           d="m 61.008374,16.122174 c -1.460977,0 -2.619682,-0.351574 -3.476117,-0.803597 l 0.705299,-1.858319 c 0.604542,0.301349 1.36022,0.652923 2.317411,0.652923 1.108328,0 1.763248,-0.351574 1.763248,-1.205397 0,-0.803597 -0.503785,-1.155171 -1.813626,-1.657419 -2.166276,-0.853823 -2.619683,-2.1596686 -2.619683,-3.4152896 0,-1.8080944 1.36022,-3.3148396 3.828767,-3.3148396 1.36022,0 2.418169,0.3515739 3.173846,0.8035974 l -0.806056,1.7578695 c -0.352649,-0.2008994 -1.158706,-0.6026981 -2.01514,-0.6026981 -1.00757,0 -1.511356,0.4520236 -1.511356,1.1551714 0,0.8035975 0.806057,1.1049465 1.813627,1.5067452 2.267033,0.8538224 2.770818,2.1596678 2.770818,3.5659638 0,1.958769 -1.662491,3.415289 -4.131038,3.415289 z" />
        <path
           id="path80"
           d="M 56.575065,6.7301288 C 56.373551,6.679904 55.718631,6.5794543 55.214846,6.5794543 c -0.503785,0 -0.957192,0.050225 -1.259463,0.1506745 V 15.921275 H 50.983051 V 5.3740581 c 0.453406,-0.2008994 2.166276,-0.8035975 4.131038,-0.8035975 1.158705,0 1.460976,0.050225 1.864004,0.1506745 z" />
        <path
           id="path82"
           d="m 25.34039,3.3148396 c -1.108327,0 -1.612112,-0.652923 -1.612112,-1.4565204 0,-0.8035975 0.503785,-1.45652046 1.612112,-1.45652046 1.00757,0 1.612112,0.65292296 1.612112,1.45652046 0,0.8035974 -0.604542,1.4565204 -1.612112,1.4565204 z" />
        <path
           id="path84"
           d="M 34.962685,15.921275 H 32.141489 L 28.312722,4.7211351 h 3.173846 l 1.460977,5.2736085 c 0.151135,0.5022484 0.503785,1.8080944 0.65492,2.4610174 h 0.05038 c 0.05038,-0.652923 0.453406,-1.958769 0.604542,-2.4610174 l 1.511355,-5.2736085 h 2.972332 z" />
        <polygon
           points="23.778656,15.921275 23.778656,4.7211352 26.750988,4.7211352 26.750988,15.921275 "
           id="polygon86" />
        <path
           id="path88"
           d="m 68.716286,3.3148396 c -1.108327,0 -1.612112,-0.652923 -1.612112,-1.4565204 0,-0.8035975 0.503785,-1.45652046 1.612112,-1.45652046 1.00757,0 1.612112,0.65292296 1.612112,1.45652046 -0.05038,0.8035974 -0.604542,1.4565204 -1.612112,1.4565204 z" />
        <path
           id="path90"
           d="M 18.690427,15.921275 V 8.0359747 c 0,-0.8035975 -0.35265,-1.6071949 -1.813627,-1.6071949 -0.705299,0 -1.158705,0.1506745 -1.511355,0.301349 V 15.921275 H 12.393113 V 5.3740581 c 1.259463,-0.5022484 2.770818,-0.8538223 4.634823,-0.8538223 3.425739,0 4.634823,1.6574198 4.634823,3.5659638 V 15.9715 h -2.972332 z" />
        <path
           id="path92"
           d="m 5.1386079,16.122174 c -2.9219535,0 -5.08822939,-1.506745 -5.08822939,-4.470011 V 1.6574198 H 3.1738461 v 9.9947432 c 0,1.356071 0.7052991,2.109444 1.9647618,2.109444 1.2090842,0 1.9647618,-0.703148 1.9647618,-2.109444 V 1.6574198 h 3.1234673 v 9.9947432 c 0,2.963266 -2.1662756,4.470011 -5.0882291,4.470011 z" />
        <path
           id="path94"
           d="m 100.5555,4.4700109 c -3.324978,0 -4.93709,2.4610173 -4.93709,5.7758571 0,3.415289 1.612112,5.876306 4.93709,5.876306 3.32498,0 4.9371,-2.461017 4.9371,-5.876306 0,-3.3148398 -1.61212,-5.7758571 -4.9371,-5.7758571 z m 0,9.6933941 c -1.511352,0 -1.864001,-1.757869 -1.864001,-3.917537 0,-2.1094436 0.352649,-3.8170882 1.864001,-3.8170882 1.51136,0 1.91439,1.7578695 1.91439,3.8170882 -0.0504,2.209893 -0.40303,3.917537 -1.91439,3.917537 z" />
        <path
           id="path96"
           d="m 49.068667,10.044968 c 0,-3.5659634 -1.813626,-5.5749571 -4.886715,-5.5749571 -3.123467,0 -4.987472,2.1596682 -4.987472,5.7758571 0,3.766863 2.115897,5.876306 5.440879,5.876306 1.763248,0 3.073089,-0.351574 3.979902,-0.853822 l -0.705299,-1.958769 c -0.806056,0.351574 -1.662491,0.652923 -2.972332,0.652923 -1.36022,0 -2.619683,-0.602698 -2.821197,-2.762366 h 6.952234 z M 46.247471,9.3418206 h -4.231795 c 0,-2.1596682 0.856435,-2.9632657 2.115898,-2.9632657 1.158705,0 2.115897,0.7031478 2.115897,2.8125912 z" />
      </g>
      <rect
         style="fill:url(#radialGradient-1)"
         height="93.769783"
         width="94.056679"
         y="0.15067452"
         x="0"
         id="rect99" />
      <g
         style="fill:#ffffff"
         transform="translate(23.174114,18.583192)"
         id="Castle">
        <g
           id="Group">
          <path
             id="path101"
             d="M 40.353186,4.118437 C 38.237288,2.9632657 36.222148,2.0592185 33.501708,1.4062956 V 6.981253 c 2.418169,0.5524733 4.73558,1.4062956 6.851478,2.3605676 z" />
          <path
             id="path103"
             d="m 31.033161,22.400279 c -0.65492,0 -1.209084,0.552474 -1.209084,1.255622 L 29.471428,35.05694 h 3.224224 L 32.292624,23.655901 c -0.05038,-0.753373 -0.503785,-1.255622 -1.259463,-1.255622 z" />
          <path
             id="path105"
             d="m 33.904736,53.790806 c -3.425738,0 -5.843907,-0.803598 -8.967374,-2.360568 -3.324982,-1.707644 -7.052991,-3.164165 -11.788571,-3.164165 -4.433309,0 -9.1688888,1.55697 -12.79614144,6.931028 4.33255174,-2.661916 8.31245394,-3.515739 11.68781444,-3.515739 3.576874,0 6.347692,0.904048 9.11851,2.360568 3.173846,1.65742 5.894285,2.812591 9.874187,2.812591 3.828767,0 8.161319,-1.45652 11.889328,-6.32833 -2.972332,2.461017 -6.146178,3.264615 -9.017753,3.264615 z" />
          <path
             id="path107"
             d="m 14.962417,46.407754 c 3.022711,0 6.549206,0.853822 10.529108,3.01349 V 38.17088 l -1.66249,-2.059219 v -15.67015 l 3.224224,-4.97226 -1.36022,4.77136 c 0.906814,-0.100449 1.813627,-0.200899 2.821197,-0.200899 3.173846,0 6.0958,0.552473 8.564346,1.506745 l 3.224225,-2.963265 V 10.547217 C 38.18691,9.5929448 35.869498,8.7893474 33.45133,8.1866493 31.990353,7.8350754 30.428619,7.5839511 28.816507,7.3830518 V 0.40179874 c -1.712869,-0.25112421 -3.476117,-0.3515739 -5.289743,-0.3515739 -1.71287,0 -3.425739,0.10044969 -5.037851,0.30134905 V 6.981253 C 16.927179,7.1821524 15.365445,7.4835015 13.904468,7.8350754 V 1.3058459 C 11.284786,2.0089937 8.816239,3.0637154 6.5492061,4.3193364 V 17.930269 L 9.6726737,20.893534 8.7658605,36.161886 6.2469351,38.673128 V 47.5127 l 0.8564346,0.904048 C 9.2192671,47.311801 11.83895,46.407754 14.962417,46.407754 Z M 14.509011,23.655901 c 0,-0.703148 0.554163,-1.255622 1.209084,-1.255622 0.65492,0 1.209084,0.552474 1.209084,1.255622 l 0.403028,11.401039 h -3.224225 z" />
        </g>
      </g>
    </g>
  </g>
</svg>
